<svg width="303" height="127" viewBox="0 0 303 127" fill="none" xmlns="http://www.w3.org/2000/svg">
<g filter="url(#filter0_d_0_1)">
<path d="M22.816 119V61.4H31.528C34.792 61.4 37.168 62.12 38.656 63.56C40.144 65 40.936 67.376 41.032 70.688C41.176 73.904 41.248 76.88 41.248 79.616C41.248 82.352 41.176 85.04 41.032 87.68C40.888 92.24 39.328 95.072 36.352 96.176L42.184 119H37.072L31.816 97.04H27.568V119H22.816ZM27.568 92.72H31.528C33.16 92.72 34.336 92.336 35.056 91.568C35.824 90.8 36.232 89.576 36.28 87.896C36.52 82.088 36.52 76.28 36.28 70.472C36.232 68.84 35.824 67.64 35.056 66.872C34.336 66.104 33.16 65.72 31.528 65.72H27.568V92.72ZM47.4254 119V61.4H63.6254V65.72H52.1774V87.896H62.9054V92.144H52.1774V114.68H63.6254V119H47.4254ZM78.5136 119.504C75.2496 119.504 72.8976 118.784 71.4576 117.344C70.0176 115.856 69.2736 113.432 69.2256 110.072C69.1296 103.304 69.0816 96.704 69.0816 90.272C69.0816 83.792 69.1296 77.168 69.2256 70.4C69.2736 67.28 70.0176 64.928 71.4576 63.344C72.8976 61.76 75.2496 60.968 78.5136 60.968C81.7776 60.968 84.1296 61.712 85.5696 63.2C87.0576 64.64 87.8496 67.04 87.9456 70.4C87.9936 71.312 88.0176 72.464 88.0176 73.856C88.0176 75.248 87.9936 76.64 87.9456 78.032C87.9456 79.376 87.9456 80.504 87.9456 81.416H83.1216C83.1696 79.592 83.1936 77.648 83.1936 75.584C83.2416 73.472 83.2416 71.504 83.1936 69.68C83.1456 68 82.7616 66.8 82.0416 66.08C81.3216 65.36 80.1456 65 78.5136 65C76.9296 65 75.7776 65.36 75.0576 66.08C74.3856 66.8 74.0256 68 73.9776 69.68C73.8336 76.784 73.7616 83.624 73.7616 90.2C73.7616 96.776 73.8336 103.64 73.9776 110.792C74.0256 112.472 74.4096 113.672 75.1296 114.392C75.8496 115.112 76.9776 115.472 78.5136 115.472C80.2416 115.472 81.4896 115.112 82.2576 114.392C83.0256 113.672 83.4336 112.472 83.4816 110.792C83.5296 108.824 83.5296 106.736 83.4816 104.528C83.4816 102.32 83.4576 100.232 83.4096 98.264H88.2336C88.2816 100.28 88.3056 102.248 88.3056 104.168C88.3056 106.088 88.2816 108.056 88.2336 110.072C88.1376 113.432 87.3456 115.856 85.8576 117.344C84.3696 118.784 81.9216 119.504 78.5136 119.504ZM104.112 119.504C100.8 119.504 98.4004 118.784 96.9124 117.344C95.4724 115.904 94.7284 113.504 94.6804 110.144C94.5364 103.28 94.4644 96.656 94.4644 90.272C94.4644 83.84 94.5364 77.168 94.6804 70.256C94.7284 66.896 95.4724 64.496 96.9124 63.056C98.4004 61.616 100.8 60.896 104.112 60.896C107.472 60.896 109.872 61.616 111.312 63.056C112.752 64.496 113.52 66.896 113.616 70.256C113.712 77.168 113.76 83.84 113.76 90.272C113.76 96.656 113.712 103.28 113.616 110.144C113.52 113.504 112.752 115.904 111.312 117.344C109.872 118.784 107.472 119.504 104.112 119.504ZM104.112 115.4C105.792 115.4 106.992 115.064 107.712 114.392C108.432 113.72 108.792 112.544 108.792 110.864C109.032 103.808 109.128 96.872 109.08 90.056C109.08 83.24 108.984 76.4 108.792 69.536C108.792 67.856 108.432 66.68 107.712 66.008C106.992 65.336 105.792 65 104.112 65C102.48 65 101.304 65.336 100.584 66.008C99.8644 66.68 99.4804 67.856 99.4324 69.536C99.2404 76.4 99.1444 83.24 99.1444 90.056C99.1444 96.872 99.2404 103.808 99.4324 110.864C99.4804 112.544 99.8644 113.72 100.584 114.392C101.304 115.064 102.48 115.4 104.112 115.4ZM120.902 119V61.4H130.118L133.214 85.016L135.878 114.464H137.174L139.838 85.016L142.934 61.4H152.15V119H147.398V101.936L148.118 65.72H146.606L142.574 102.44L140.198 118.784H132.854L130.478 102.44L126.446 65.72H124.934L125.726 102.296V119H120.902ZM159.785 119V61.4H169.001L172.097 85.016L174.761 114.464H176.057L178.721 85.016L181.817 61.4H191.033V119H186.281V101.936L187.001 65.72H185.489L181.457 102.44L179.081 118.784H171.737L169.361 102.44L165.329 65.72H163.817L164.609 102.296V119H159.785ZM198.668 119V61.4H214.868V65.72H203.42V87.896H214.148V92.144H203.42V114.68H214.868V119H198.668ZM220.324 119V61.4H228.892L231.988 79.616L237.388 114.68H238.9L238.18 81.632L237.82 61.4H242.5V119H233.716L230.332 98.336L225.508 65.72H223.996L224.644 97.256L225.004 119H220.324ZM250.136 119V61.4H259.352C262.664 61.4 265.04 62.144 266.48 63.632C267.968 65.12 268.76 67.568 268.856 70.976C268.904 75.536 268.928 79.88 268.928 84.008C268.976 88.136 268.976 92.264 268.928 96.392C268.928 100.472 268.904 104.816 268.856 109.424C268.76 112.832 267.968 115.28 266.48 116.768C264.992 118.256 262.592 119 259.28 119H250.136ZM254.888 114.68H259.28C260.912 114.68 262.088 114.296 262.808 113.528C263.576 112.76 263.984 111.536 264.032 109.856C264.224 96.752 264.224 83.624 264.032 70.472C263.984 68.84 263.576 67.64 262.808 66.872C262.088 66.104 260.936 65.72 259.352 65.72H254.888V114.68ZM285.73 119.504C282.418 119.504 280.042 118.784 278.602 117.344C277.162 115.856 276.37 113.408 276.226 110C276.178 107.792 276.154 105.848 276.154 104.168C276.154 102.44 276.226 100.448 276.37 98.192H280.906C280.81 100.304 280.762 102.416 280.762 104.528C280.762 106.64 280.81 108.704 280.906 110.72C281.002 112.352 281.41 113.552 282.13 114.32C282.85 115.04 284.05 115.4 285.73 115.4C287.314 115.4 288.442 115.04 289.114 114.32C289.834 113.552 290.242 112.352 290.338 110.72C290.434 109.376 290.482 108.176 290.482 107.12C290.482 106.064 290.458 104.984 290.41 103.88C290.41 102.728 290.386 101.408 290.338 99.92C290.29 98.096 290.026 96.584 289.546 95.384C289.114 94.184 288.226 93.416 286.882 93.08L283.066 92.072C280.282 91.4 278.458 90.176 277.594 88.4C276.73 86.624 276.25 84.08 276.154 80.768C276.106 79.184 276.082 77.48 276.082 75.656C276.13 73.832 276.178 72.056 276.226 70.328C276.274 66.968 277.018 64.568 278.458 63.128C279.898 61.64 282.322 60.896 285.73 60.896C288.898 60.896 291.178 61.64 292.57 63.128C294.01 64.568 294.802 66.968 294.946 70.328C294.946 71.672 294.946 73.328 294.946 75.296C294.946 77.216 294.922 79.232 294.874 81.344H290.266C290.314 79.424 290.338 77.48 290.338 75.512C290.338 73.544 290.314 71.576 290.266 69.608C290.17 66.536 288.634 65 285.658 65C284.026 65 282.85 65.384 282.13 66.152C281.458 66.872 281.074 68.024 280.978 69.608C280.882 71.48 280.834 73.352 280.834 75.224C280.834 77.048 280.882 78.896 280.978 80.768C281.026 82.928 281.266 84.536 281.698 85.592C282.178 86.648 283.138 87.368 284.578 87.752L288.106 88.616C290.938 89.288 292.786 90.536 293.65 92.36C294.562 94.184 295.066 96.704 295.162 99.92C295.21 101.408 295.234 102.656 295.234 103.664C295.234 104.672 295.21 105.656 295.162 106.616C295.162 107.576 295.162 108.704 295.162 110C295.018 113.408 294.226 115.856 292.786 117.344C291.346 118.784 288.994 119.504 285.73 119.504Z" fill="#A73638"/>
</g>
<g filter="url(#filter1_d_0_1)">
<path d="M5.264 60L1.376 2.4H6.2L7.424 24.072L9.008 55.68H10.304L12.176 24.072L14.552 2.76H22.04L24.416 24.072L26.36 55.68H27.584L29.24 24.072L30.536 2.4H35.288L31.328 60H22.76L20.96 41.136L18.944 6.936H17.648L15.632 41.136L13.832 60H5.264ZM40.7848 60V2.4H49.4968C52.7608 2.4 55.1368 3.12 56.6248 4.56C58.1128 6 58.9048 8.376 59.0008 11.688C59.1448 14.904 59.2168 17.88 59.2168 20.616C59.2168 23.352 59.1448 26.04 59.0008 28.68C58.8568 33.24 57.2968 36.072 54.3208 37.176L60.1528 60H55.0408L49.7848 38.04H45.5368V60H40.7848ZM45.5368 33.72H49.4968C51.1288 33.72 52.3048 33.336 53.0248 32.568C53.7928 31.8 54.2008 30.576 54.2488 28.896C54.4888 23.088 54.4888 17.28 54.2488 11.472C54.2008 9.84 53.7928 8.64 53.0248 7.872C52.3048 7.104 51.1288 6.72 49.4968 6.72H45.5368V33.72ZM65.3941 60V2.4H81.5941V6.72H70.1461V28.896H80.8741V33.144H70.1461V55.68H81.5941V60H65.3941ZM96.6984 60.504C93.3864 60.504 91.0104 59.784 89.5704 58.344C88.1304 56.856 87.3384 54.408 87.1944 51C87.1464 48.792 87.1224 46.848 87.1224 45.168C87.1224 43.44 87.1944 41.448 87.3384 39.192H91.8744C91.7784 41.304 91.7304 43.416 91.7304 45.528C91.7304 47.64 91.7784 49.704 91.8744 51.72C91.9704 53.352 92.3784 54.552 93.0984 55.32C93.8184 56.04 95.0184 56.4 96.6984 56.4C98.2824 56.4 99.4104 56.04 100.082 55.32C100.802 54.552 101.21 53.352 101.306 51.72C101.402 50.376 101.45 49.176 101.45 48.12C101.45 47.064 101.426 45.984 101.378 44.88C101.378 43.728 101.354 42.408 101.306 40.92C101.258 39.096 100.994 37.584 100.514 36.384C100.082 35.184 99.1944 34.416 97.8504 34.08L94.0344 33.072C91.2504 32.4 89.4264 31.176 88.5624 29.4C87.6984 27.624 87.2184 25.08 87.1224 21.768C87.0744 20.184 87.0504 18.48 87.0504 16.656C87.0984 14.832 87.1464 13.056 87.1944 11.328C87.2424 7.968 87.9864 5.568 89.4264 4.128C90.8664 2.64 93.2904 1.896 96.6984 1.896C99.8664 1.896 102.146 2.64 103.538 4.128C104.978 5.568 105.77 7.968 105.914 11.328C105.914 12.672 105.914 14.328 105.914 16.296C105.914 18.216 105.89 20.232 105.842 22.344H101.234C101.282 20.424 101.306 18.48 101.306 16.512C101.306 14.544 101.282 12.576 101.234 10.608C101.138 7.536 99.6024 6 96.6264 6C94.9944 6 93.8184 6.384 93.0984 7.152C92.4264 7.872 92.0424 9.024 91.9464 10.608C91.8504 12.48 91.8024 14.352 91.8024 16.224C91.8024 18.048 91.8504 19.896 91.9464 21.768C91.9944 23.928 92.2344 25.536 92.6664 26.592C93.1464 27.648 94.1064 28.368 95.5464 28.752L99.0744 29.616C101.906 30.288 103.754 31.536 104.618 33.36C105.53 35.184 106.034 37.704 106.13 40.92C106.178 42.408 106.202 43.656 106.202 44.664C106.202 45.672 106.178 46.656 106.13 47.616C106.13 48.576 106.13 49.704 106.13 51C105.986 54.408 105.194 56.856 103.754 58.344C102.314 59.784 99.9624 60.504 96.6984 60.504ZM117.411 60V6.72H110.067V2.4H129.507V6.72H122.235V60H117.411ZM134.3 60V2.4H139.052V55.68H150.572V60H134.3ZM155.113 60V2.4H159.865V60H155.113ZM167.488 60V2.4H176.056L179.152 20.616L184.552 55.68H186.064L185.344 22.632L184.984 2.4H189.664V60H180.88L177.496 39.336L172.672 6.72H171.16L171.808 38.256L172.168 60H167.488ZM206.595 60.504C203.283 60.504 200.907 59.784 199.467 58.344C198.027 56.856 197.259 54.408 197.163 51C196.923 37.8 196.923 24.672 197.163 11.616C197.259 8.112 198.027 5.616 199.467 4.128C200.907 2.64 203.283 1.896 206.595 1.896C209.763 1.896 212.067 2.64 213.507 4.128C214.947 5.568 215.739 7.968 215.883 11.328C216.027 15.024 216.027 18.696 215.883 22.344H211.131C211.275 18.456 211.275 14.544 211.131 10.608C210.987 7.536 209.475 6 206.595 6C203.619 6 202.083 7.536 201.987 10.608C201.651 24.336 201.651 38.04 201.987 51.72C201.987 53.352 202.347 54.552 203.067 55.32C203.835 56.04 205.011 56.4 206.595 56.4C209.763 56.4 211.395 54.84 211.491 51.72C211.587 47.832 211.587 43.92 211.491 39.984H206.667V35.736H216.171C216.219 37.608 216.243 39.792 216.243 42.288C216.243 44.736 216.219 47.64 216.171 51C216.027 54.408 215.211 56.856 213.723 58.344C212.283 59.784 209.907 60.504 206.595 60.504Z" fill="#DDDDDA"/>
</g>
<defs>
<filter id="filter0_d_0_1" x="21.816" y="59.896" width="280.418" height="66.608" filterUnits="userSpaceOnUse" color-interpolation-filters="sRGB">
<feFlood flood-opacity="0" result="BackgroundImageFix"/>
<feColorMatrix in="SourceAlpha" type="matrix" values="0 0 0 0 0 0 0 0 0 0 0 0 0 0 0 0 0 0 127 0" result="hardAlpha"/>
<feOffset dx="3" dy="3"/>
<feGaussianBlur stdDeviation="2"/>
<feComposite in2="hardAlpha" operator="out"/>
<feColorMatrix type="matrix" values="0 0 0 0 0 0 0 0 0 0 0 0 0 0 0 0 0 0 0.25 0"/>
<feBlend mode="normal" in2="BackgroundImageFix" result="effect1_dropShadow_0_1"/>
<feBlend mode="normal" in="SourceGraphic" in2="effect1_dropShadow_0_1" result="shape"/>
</filter>
<filter id="filter1_d_0_1" x="0.375977" y="0.895996" width="222.867" height="66.608" filterUnits="userSpaceOnUse" color-interpolation-filters="sRGB">
<feFlood flood-opacity="0" result="BackgroundImageFix"/>
<feColorMatrix in="SourceAlpha" type="matrix" values="0 0 0 0 0 0 0 0 0 0 0 0 0 0 0 0 0 0 127 0" result="hardAlpha"/>
<feOffset dx="3" dy="3"/>
<feGaussianBlur stdDeviation="2"/>
<feComposite in2="hardAlpha" operator="out"/>
<feColorMatrix type="matrix" values="0 0 0 0 0 0 0 0 0 0 0 0 0 0 0 0 0 0 0.25 0"/>
<feBlend mode="normal" in2="BackgroundImageFix" result="effect1_dropShadow_0_1"/>
<feBlend mode="normal" in="SourceGraphic" in2="effect1_dropShadow_0_1" result="shape"/>
</filter>
</defs>
</svg>
